<?xml version="1.0" encoding="utf-8"?>
<!-- Generator: Adobe Illustrator 27.9.0, SVG Export Plug-In . SVG Version: 6.00 Build 0)  -->
<svg version="1.1" id="a" xmlns="http://www.w3.org/2000/svg" xmlns:xlink="http://www.w3.org/1999/xlink" x="0px" y="0px"
	 viewBox="0 0 512 512" style="enable-background:new 0 0 512 512;" xml:space="preserve">
<style type="text/css">
	.st0{fill:#B30202;}
	.st1{fill:#F7F7F9;}
</style>
<path class="st0" d="M120.5-0.1h271.1C458.1-0.1,512,53.8,512,120.3v271.1c0,66.5-53.9,120.5-120.5,120.5H120.5
	C53.9,511.9,0,457.9,0,391.4V120.3C0,53.8,53.9-0.1,120.5-0.1z"/>
<g>
	<path class="st1" d="M95.5,263.3H36.6v-14.7h58.8V263.3z"/>
	<path class="st1" d="M138.3,316.8c-7-5.4-12.3-13.3-16.1-23.6c-3.7-10.3-5.6-22.7-5.6-37.2c0-14.4,1.9-26.8,5.6-37.1
		c3.7-10.4,9.1-18.2,16.1-23.7c7-5.4,15.4-8.1,25.2-8.1s18.2,2.7,25.2,8.1c7,5.4,12.4,13.3,16.1,23.7c3.7,10.4,5.6,22.7,5.6,37.1
		c0,14.5-1.8,27-5.5,37.2s-9,18.1-16.1,23.6c-7,5.4-15.5,8.1-25.4,8.1S145.3,322.2,138.3,316.8L138.3,316.8z M180.2,303.8
		c4.6-4.2,8.1-10.3,10.5-18.4c2.4-8.1,3.6-17.9,3.6-29.4s-1.2-21.3-3.6-29.4c-2.4-8.1-5.9-14.3-10.5-18.6
		c-4.6-4.2-10.1-6.4-16.5-6.4s-11.9,2.1-16.5,6.4c-4.6,4.2-8.1,10.4-10.5,18.6c-2.4,8.1-3.7,18-3.7,29.4c0,11.5,1.2,21.3,3.6,29.4
		c2.4,8.1,5.9,14.3,10.5,18.4c4.6,4.2,10.1,6.3,16.6,6.3S175.6,308,180.2,303.8z"/>
	<path class="st1" d="M233.5,322.5c-1.9-1.1-3.3-2.5-4.4-4.4c-1.1-1.8-1.6-3.8-1.5-5.9c0-2.1,0.5-4.1,1.5-6c1.1-1.9,2.5-3.3,4.4-4.4
		c1.9-1,3.9-1.6,6-1.6s4.1,0.5,6,1.6c1.9,1,3.3,2.5,4.4,4.4c1,1.9,1.6,3.9,1.6,6s-0.5,4.1-1.6,5.9s-2.5,3.3-4.4,4.4
		c-1.9,1.1-3.9,1.6-6,1.6S235.3,323.6,233.5,322.5z"/>
	<path class="st1" d="M293.9,320.5c-7-3-12.5-7.1-16.5-12.5s-6.2-11.6-6.5-18.5h16.9c0.3,4.1,1.8,7.8,4.5,10.9
		c2.7,3.1,6.2,5.5,10.6,7.2c4.4,1.7,9.2,2.6,14.5,2.6c5.9,0,11.1-1,15.7-3c4.6-2,8.3-4.8,10.9-8.4c2.6-3.6,3.9-7.6,3.9-12.2
		c0-4.9-1.3-9.2-3.8-13c-2.5-3.8-6.3-6.7-11.2-8.8c-4.9-2.1-10.8-3.1-17.7-3.1h-10.9V247h10.9c5.4,0,10.2-1,14.5-2.9
		c4.2-1.9,7.5-4.6,9.8-8.1c2.3-3.5,3.5-7.5,3.5-12.1c0-4.4-1-8.3-3.1-11.7c-2.1-3.4-5-6-8.8-7.8c-3.8-1.8-8.2-2.8-13.3-2.8
		c-4.8,0-9.3,0.9-13.5,2.6s-7.6,4.1-10.3,7.3c-2.6,3.2-4.1,6.9-4.3,11.1h-16.1c0.3-6.9,2.4-13.1,6.4-18.5c4-5.4,9.4-9.6,16.1-12.6
		c6.7-3,14-4.5,21.9-4.5c8.3,0,15.5,1.6,21.7,4.9c6.2,3.3,11,7.7,14.3,13.2c3.3,5.5,5,11.5,4.9,18c0,5-0.8,9.5-2.7,13.6
		c-1.8,4.1-4.5,7.6-7.9,10.4c-3.5,2.8-7.5,4.9-12.2,6.2v1c5.8,0.9,10.8,2.8,15,5.6c4.2,2.9,7.5,6.6,9.7,11.2
		c2.2,4.6,3.3,9.7,3.2,15.4c0,7.2-2,13.7-6,19.6s-9.6,10.4-16.8,13.7c-7.1,3.3-15.1,5-23.9,5C308.8,324.9,300.9,323.4,293.9,320.5
		L293.9,320.5z"/>
	<path class="st1" d="M388.1,310.9l45.7-48.2c6-6.4,10.6-11.6,13.8-15.5c3.2-3.9,5.6-7.7,7.2-11.3c1.6-3.6,2.5-7.5,2.5-11.4
		c0-4.5-1.2-8.5-3.6-12c-2.3-3.4-5.5-6.1-9.6-8c-4-1.9-8.6-2.8-13.6-2.8c-5.2,0-9.8,1-13.8,3.1c-3.9,2.1-7,5-9.1,8.8
		c-2.1,3.8-3.2,8.2-3.2,13.2h-15.9c0-7.8,1.8-14.7,5.5-20.7c3.7-6,8.8-10.7,15.2-14c6.5-3.3,13.7-5,21.8-5c7.9,0,15.1,1.6,21.5,4.9
		c6.4,3.3,11.3,7.8,14.9,13.5c3.6,5.7,5.4,12,5.4,19c0,5.1-1,10-2.9,14.6c-1.9,4.7-5,9.8-9.4,15.5c-4.4,5.7-10.6,12.7-18.7,21
		l-30.7,31.7v1h63.9v14.8h-87.1L388.1,310.9L388.1,310.9z"/>
</g>
</svg>
